<?xml version="1.0" encoding="iso-8859-1"?>
<!-- Generator: Adobe Illustrator 16.0.0, SVG Export Plug-In . SVG Version: 6.00 Build 0)  -->
<!DOCTYPE svg PUBLIC "-//W3C//DTD SVG 1.1//EN" "http://www.w3.org/Graphics/SVG/1.1/DTD/svg11.dtd">
<svg version="1.1" id="Capa_1" xmlns="http://www.w3.org/2000/svg" xmlns:xlink="http://www.w3.org/1999/xlink" x="0px" y="0px"
	 width="612px" height="612px" viewBox="0 0 612 612" style="enable-background:new 0 0 612 612;" xml:space="preserve">
<g>
	<path d="M611.979,94.842c0-14.168-11.513-25.681-25.661-25.681H25.692C11.564,69.161,0.01,80.674,0,94.853v305.236v58.52
		c0.041,14.117,11.564,25.641,25.692,25.66H239.92v6.727c0.103,17.109-15.911,25.629-21.263,27.998h-3.506
		c-9.903,0-14.312,5.598-14.312,11.123v1.6c0,5.547,4.409,11.123,14.312,11.123h181.718c9.894,0,14.312-5.576,14.312-11.123v-1.6
		c0-5.525-4.429-11.123-14.312-11.123h-3.547c-5.331-2.369-21.335-10.918-21.222-28.051v-6.674h214.229
		c14.138-0.02,25.65-11.543,25.65-25.691L612,400.089L611.979,94.842z M255.257,518.87c5.516-8.242,8.448-17.705,8.499-27.928
		v-6.674h84.477v6.727c0.062,10.18,2.983,19.633,8.51,27.875H255.257z M568.274,394.255H43.735V106.028h524.539V394.255z"/>
</g>
<g>
</g>
<g>
</g>
<g>
</g>
<g>
</g>
<g>
</g>
<g>
</g>
<g>
</g>
<g>
</g>
<g>
</g>
<g>
</g>
<g>
</g>
<g>
</g>
<g>
</g>
<g>
</g>
<g>
</g>
</svg>
